<svg width="10" height="10" viewBox="0 0 10 10" fill="none" xmlns="http://www.w3.org/2000/svg">
<path d="M1.42649 4.41074e-05V9.45459H-4.13507e-06V4.41074e-05H1.42649ZM4.77343 5.24436V9.45459H3.39311V2.36368H4.71804V3.5178H4.80575C4.96886 3.14233 5.22431 2.84072 5.57208 2.61297C5.92294 2.38522 6.36458 2.27135 6.89701 2.27135C7.3802 2.27135 7.80338 2.37291 8.16654 2.57604C8.52971 2.77609 8.81131 3.07462 9.01136 3.47164C9.21141 3.86865 9.31143 4.35954 9.31143 4.94429V9.45459H7.9311V5.11048C7.9311 4.59652 7.79723 4.19488 7.52947 3.90558C7.26171 3.61321 6.89394 3.46702 6.42613 3.46702C6.10606 3.46702 5.82137 3.53627 5.57208 3.67476C5.32587 3.81325 5.13044 4.01638 4.98579 4.28414C4.84422 4.54881 4.77343 4.86889 4.77343 5.24436Z" fill="#1A1A1B" fill-opacity="0.8"/>
</svg>
