<svg width="22" height="10" viewBox="0 0 22 10" fill="none" xmlns="http://www.w3.org/2000/svg">
<path d="M8.51741 4.85659C8.51741 5.86606 8.33275 6.73396 7.96343 7.46028C7.59412 8.18353 7.08784 8.74059 6.44461 9.13145C5.80446 9.51923 5.0766 9.71312 4.26102 9.71312C3.44236 9.71312 2.71142 9.51923 2.06819 9.13145C1.42804 8.74059 0.923307 8.18199 0.553988 7.45567C0.18467 6.72934 1.11237e-05 5.86298 1.11237e-05 4.85659C1.11237e-05 3.84712 0.18467 2.98076 0.553988 2.25751C0.923307 1.53119 1.42804 0.974132 2.06819 0.586348C2.71142 0.195486 3.44236 5.51343e-05 4.26102 5.51343e-05C5.0766 5.51343e-05 5.80446 0.195486 6.44461 0.586348C7.08784 0.974132 7.59412 1.53119 7.96343 2.25751C8.33275 2.98076 8.51741 3.84712 8.51741 4.85659ZM7.10477 4.85659C7.10477 4.08718 6.98013 3.43933 6.73083 2.91305C6.48462 2.3837 6.14608 1.9836 5.71521 1.71277C5.28742 1.43886 4.80269 1.3019 4.26102 1.3019C3.71628 1.3019 3.23001 1.43886 2.80221 1.71277C2.37442 1.9836 2.03588 2.3837 1.78659 2.91305C1.54038 3.43933 1.41727 4.08718 1.41727 4.85659C1.41727 5.626 1.54038 6.27539 1.78659 6.80474C2.03588 7.33102 2.37442 7.73112 2.80221 8.00503C3.23001 8.27586 3.71628 8.41128 4.26102 8.41128C4.80269 8.41128 5.28742 8.27586 5.71521 8.00503C6.14608 7.73112 6.48462 7.33102 6.73083 6.80474C6.98013 6.27539 7.10477 5.626 7.10477 4.85659ZM14.6769 6.64317V2.49295H16.0619V9.58386H14.7046V8.35588H14.6308C14.4677 8.73443 14.2061 9.04989 13.846 9.30226C13.489 9.55155 13.0443 9.67619 12.5118 9.67619C12.0563 9.67619 11.6532 9.57617 11.3023 9.37612C10.9545 9.173 10.6806 8.87292 10.4806 8.47591C10.2836 8.07889 10.1851 7.58801 10.1851 7.00325V2.49295H11.5654V6.83706C11.5654 7.32025 11.6993 7.70496 11.9671 7.99118C12.2348 8.2774 12.5826 8.42051 13.0104 8.42051C13.2689 8.42051 13.5259 8.35588 13.7814 8.22662C14.0399 8.09736 14.2538 7.90193 14.423 7.64033C14.5954 7.37872 14.68 7.04634 14.6769 6.64317ZM21.2266 2.49295V3.60091H17.3533V2.49295H21.2266ZM18.3921 0.794089H19.7724V7.50183C19.7724 7.76959 19.8124 7.97117 19.8924 8.10659C19.9724 8.23893 20.0755 8.32972 20.2017 8.37896C20.331 8.42513 20.471 8.44821 20.6218 8.44821C20.7326 8.44821 20.8296 8.44051 20.9127 8.42513C20.9957 8.40974 21.0604 8.39743 21.1065 8.38819L21.3558 9.52846C21.2758 9.55924 21.1619 9.59002 21.0142 9.62079C20.8665 9.65465 20.6818 9.67311 20.4602 9.67619C20.0971 9.68235 19.7585 9.61772 19.4446 9.4823C19.1307 9.34688 18.8768 9.1376 18.6829 8.85446C18.489 8.57131 18.3921 8.21585 18.3921 7.78805V0.794089Z" fill="#1A1A1B" fill-opacity="0.8"/>
</svg>
